<svg width="100" height="100" viewBox="0 0 100 100" fill="none" xmlns="http://www.w3.org/2000/svg">
<path fill-rule="evenodd" clip-rule="evenodd" d="M90.2183 66.2485L90.4126 65.8746C94.1629 64.8165 96.9827 61.5599 96.9827 57.5633C96.9827 55.7829 96.4124 54.1325 95.4471 52.7652L97.4387 50.082L97.4452 50.0728C98.3508 48.8136 98.8923 47.289 98.2365 45.7596C97.631 44.3475 96.1981 43.4391 94.5288 42.8092L94.5259 42.8081C93.897 42.5722 93.245 42.3741 92.5724 42.2126L92.4221 41.4803C91.9771 39.3113 91.3674 37.2005 90.6062 35.1611C84.5268 18.4181 68.0334 6.46826 48.6993 6.46826C29.6683 6.46826 13.3665 18.0613 7.073 34.403C6.42005 34.4563 5.75406 34.5396 5.07672 34.6517L5.04469 34.657L5.01294 34.6638C3.67655 34.9492 2.4535 35.5166 1.80549 36.5768C1.09791 37.7344 1.34259 39.0042 1.93727 40.0306L3.18716 42.3206C2.1876 43.4825 1.57333 44.9725 1.57333 46.6123C1.57333 48.7407 2.58842 50.5939 4.15211 51.8296C4.14727 52.0503 4.14925 52.2543 4.16178 52.4264L4.45513 55.0414C4.49825 55.4258 4.54749 55.8063 4.60106 56.1824L4.60122 56.1834C7.63534 77.4015 26.2693 93.6683 48.7334 93.6683C66.113 93.6683 81.1879 83.9365 88.5343 69.7155L88.5352 69.7138L88.5361 69.712C88.7126 69.3686 88.8879 69.0185 89.0582 68.6639L90.2183 66.2485Z" fill="white"/>
<path fill-rule="evenodd" clip-rule="evenodd" d="M81.7224 48.6517L5.51989 36.4127L6.24265 31.9443L82.4954 44.1908L81.3749 46.0861C81.3134 46.1901 81.2754 46.3208 81.3191 46.5486L81.7224 48.6517ZM92.0169 63.9805L91.2898 68.4482L84.887 67.4205L84.8847 67.4193L2.62402 54.209L3.3507 49.7395L81.4025 62.2746H81.4043L85.7386 62.9724L85.8337 63.0009C86.3806 63.1652 86.963 63.2621 87.5706 63.2793L87.6689 63.2821L92.0169 63.9805ZM81.2828 63.7746L4.59101 51.4579L4.34577 52.9663L85.3466 65.9743C85.3472 65.9743 85.3483 65.9746 85.3492 65.975C85.3502 65.9754 85.3511 65.9758 85.3511 65.9758L90.0497 66.73L90.2949 65.2231L87.5281 64.7787C87.4508 64.7765 87.3739 64.7733 87.2972 64.769C86.7902 64.7406 86.2967 64.6665 85.8213 64.5512C85.7543 64.5349 85.6877 64.5179 85.6214 64.5C85.6201 64.4996 85.6187 64.4993 85.6173 64.4989C85.5452 64.4794 85.4735 64.4589 85.4022 64.4375L81.2843 63.7746H81.2828ZM85.3466 65.9848L85.3441 65.9899C85.3449 65.9882 85.3457 65.9865 85.3466 65.9848ZM7.24042 35.1698L79.8459 46.8311C79.8441 46.8217 79.8424 46.8123 79.8407 46.8029C79.7451 46.2746 79.819 45.7842 80.0691 45.3477C80.0739 45.3394 80.0787 45.331 80.0837 45.3227L7.48416 33.6629L7.24042 35.1698Z" fill="white"/>
<path d="M90.4637 41.8825C89.5745 41.7718 88.6447 41.7164 87.6924 41.7164C86.1743 41.7164 84.5584 41.8571 82.8884 42.1354L82.8538 42.1414L82.8207 42.1474C82.1768 42.285 81.59 42.4676 81.0739 42.6906C80.7445 42.8327 80.4421 42.9928 80.1682 43.1679C80.105 42.8956 80.0388 42.6247 79.9681 42.3554C76.3964 28.6141 63.7388 18.4567 48.6709 18.4567C37.3117 18.4567 27.3217 24.2297 21.5608 32.9596C21.2765 33.3906 21.0027 33.829 20.7379 34.2749L10.1279 32.5706C10.3431 32.1186 10.5673 31.6727 10.7989 31.2298C17.8386 17.7564 32.1828 8.53125 48.7341 8.53125C69.3597 8.53125 86.561 22.8606 90.4637 41.8825Z" fill="#D8BFA9"/>
<path d="M87.2561 67.7984C87.0951 68.1336 86.9281 68.4673 86.7581 68.798C79.75 82.3642 65.3547 91.6687 48.7341 91.6687C27.2435 91.6687 9.47197 76.1123 6.58178 55.9007C6.53062 55.5416 6.48398 55.181 6.44336 54.8188L16.9871 56.5127C17.0623 56.8824 17.1436 57.249 17.2308 57.6141C20.598 71.6426 33.397 82.0814 48.6709 82.0814C60.2438 82.0814 70.3933 76.0899 76.1 67.0847C76.3046 66.7614 76.5047 66.4337 76.6973 66.1015L87.2561 67.7984Z" fill="#D8BFA9"/>
<path d="M79.8458 46.8307L78.3021 46.5823L19.2539 37.0998L8.89371 35.4358L7.24023 35.1695L7.48397 33.6626L9.48649 33.9843L19.961 35.6662L78.5383 45.074L80.0835 45.3224C79.8172 45.7728 79.7404 46.2816 79.8458 46.8307Z" fill="#D8BFA9"/>
<path d="M90.2949 65.2232L90.1715 65.9818L90.0496 66.73L87.9057 66.3859L87.0767 66.2527L85.351 65.9759C85.351 65.9759 85.348 65.9744 85.3465 65.9744L77.4643 64.7084L16.7114 54.9521L6.29256 53.2791L4.3457 52.9664L4.59094 51.458L6.20229 51.7169L16.5158 53.3734L78.1609 63.2734L81.2828 63.7747H81.2843L85.4022 64.4376C86.0747 64.6396 86.7878 64.7578 87.5281 64.7788L88.506 64.9359L90.2949 65.2232Z" fill="#D8BFA9"/>
<path d="M94.0009 44.2572C92.9914 43.8786 91.9051 43.6033 90.7511 43.4312C88.4642 43.0885 85.908 43.1499 83.1367 43.6108C82.577 43.7305 82.0895 43.8831 81.6728 44.0627C80.904 44.3949 80.3774 44.8228 80.084 45.3226C79.8177 45.773 79.741 46.2818 79.8463 46.831C79.917 47.2006 80.0705 47.5896 80.3052 47.9907L82.6297 52.2643C81.0559 53.5796 80.0645 55.486 80.0645 57.6079C80.0645 60.8012 82.3047 63.5066 85.4025 64.4374C86.075 64.6394 86.7882 64.7576 87.5284 64.7785C87.6097 64.7815 87.6924 64.783 87.7752 64.783C92.0345 64.783 95.4844 61.5718 95.4844 57.6079C95.4844 55.7853 94.7532 54.1183 93.548 52.8539L96.2291 49.2416C97.7562 47.1183 97.1258 45.4364 94.0009 44.2572ZM93.1403 49.5275L91.8238 51.5027C90.6473 50.8248 89.2616 50.4343 87.7752 50.4343C86.6242 50.4343 85.5304 50.6692 84.5495 51.0912L83.3684 48.6715C83.1201 48.1972 83.0193 47.7498 83.0735 47.3487C83.1472 46.7891 83.5219 46.3177 84.2139 45.987C84.4682 45.8643 84.7646 45.7611 85.1061 45.6803C87.6653 45.2059 89.9251 45.3496 91.7712 46.1202C93.6895 46.9253 94.0761 48.0775 93.1403 49.5275Z" fill="#231F20"/>
<path d="M93.1882 47.4263L92.9429 48.9347L91.8461 48.7596L91.2714 48.6668L84.5642 47.5879L83.0732 47.3485C83.147 46.7889 83.5216 46.3175 84.2137 45.9868L91.1887 47.1061L93.1882 47.4263Z" fill="#D8BFA9"/>
<path d="M13.5475 36.5211C11.2621 35.6681 8.46974 35.5095 5.30572 36.0332C2.91653 36.5435 2.26356 37.8169 3.15725 39.3432L4.92056 42.5739C3.72597 43.5675 2.9737 45.0085 2.9737 46.6126C2.9737 49.6069 5.59309 52.0355 8.82331 52.0355C12.0535 52.0355 14.6714 49.6084 14.6714 46.6126C14.6714 45.2345 14.1162 43.976 13.2015 43.0198L15.2356 40.2904C16.3941 38.6863 15.9157 37.4144 13.5445 36.5226L13.5475 36.5211ZM12.8946 40.5044L11.8956 41.9978C11.0019 41.486 9.9517 41.1913 8.82331 41.1913C7.94918 41.1913 7.12018 41.3678 6.37544 41.6881L5.47874 39.8595C4.93109 38.8165 5.32979 37.9471 6.79671 37.5985C8.73755 37.2393 10.4512 37.3486 11.8534 37.9306C13.3083 38.5397 13.6017 39.4091 12.8915 40.5059L12.8946 40.5044Z" fill="#231F20"/>
<path d="M21.0769 49.4141L20.0749 44.0152L19.3346 48.5492C19.3166 48.6615 19.3196 48.7482 19.3437 48.8111C19.3677 48.8739 19.4219 48.9308 19.5032 48.9817L19.4746 49.1553L18.0137 48.9188L18.0423 48.7453C18.1355 48.7228 18.2047 48.6869 18.2469 48.6345C18.2905 48.5822 18.3206 48.4998 18.3402 48.3891L19.3617 42.1343C19.3798 42.0265 19.3768 41.9397 19.3512 41.8769C19.3271 41.814 19.273 41.7572 19.1917 41.7063L19.2203 41.5327L21.1386 41.8425L21.11 42.016C20.9881 42.0415 20.9159 42.1313 20.8903 42.2854C20.8783 42.3572 20.8813 42.4425 20.9009 42.5428L21.6336 46.58L23.6226 43.05C23.7098 42.8944 23.761 42.7777 23.773 42.7029C23.7971 42.5547 23.7504 42.462 23.6316 42.4246L23.6602 42.251L25.5408 42.5547L25.5122 42.7283C25.419 42.7508 25.3513 42.7867 25.3076 42.8391C25.264 42.8914 25.2339 42.9707 25.2158 43.08L24.1943 49.3348C24.1762 49.4471 24.1792 49.5338 24.2033 49.5967C24.2274 49.6595 24.2815 49.7164 24.3628 49.7673L24.3342 49.9409L22.7815 49.6895L22.8101 49.5159C22.9004 49.4979 22.9681 49.4605 23.0132 49.4067C23.0584 49.3528 23.0899 49.2705 23.108 49.1583L23.8482 44.6242L21.0769 49.4126V49.4141Z" fill="#231F20"/>
<path d="M28.4754 49.0552L26.5978 48.7514L26.2788 49.3769C26.2021 49.528 26.1555 49.6477 26.1419 49.7375C26.1133 49.9111 26.1735 50.0338 26.321 50.1056L26.2969 50.2568L24.7969 50.0144L24.8209 49.8632C24.9172 49.8557 24.9925 49.8258 25.0466 49.7719C25.1023 49.7181 25.1745 49.6059 25.2648 49.4353L27.487 45.196C27.5712 45.0359 27.6224 44.8923 27.6434 44.7666C27.6675 44.6184 27.6179 44.4927 27.496 44.3865L27.5201 44.2354L29.1058 44.4912L29.0818 44.6424C28.9343 44.7007 28.8486 44.8115 28.8215 44.9776C28.8019 45.0973 28.8095 45.2469 28.841 45.431L29.6761 50.0248C29.7227 50.2747 29.7648 50.4378 29.8009 50.5156C29.8386 50.5935 29.9047 50.6548 29.9995 50.6997L29.9755 50.8508L28.3084 50.5815L28.3325 50.4304C28.4965 50.4169 28.5943 50.3196 28.6229 50.1401C28.6409 50.0293 28.6334 49.8857 28.5988 49.7106L28.4754 49.0537V49.0552ZM28.3205 48.1589L27.9699 46.1013L27.0146 47.9479L28.319 48.1589H28.3205Z" fill="#231F20"/>
<path d="M31.9323 48.615L31.6163 50.5468C31.5983 50.6591 31.6013 50.7474 31.6253 50.8117C31.6494 50.876 31.7021 50.9359 31.7833 50.9898L31.7592 51.1409L30.3164 50.9075L30.3405 50.7563C30.4308 50.7369 30.4985 50.701 30.5436 50.6441C30.5887 50.5887 30.6203 50.5049 30.6384 50.3927L31.4478 45.4367C31.4659 45.3245 31.4629 45.2377 31.4388 45.1748C31.4147 45.112 31.3605 45.0536 31.2808 44.9998L31.3049 44.8486L33.9799 45.2811C34.3275 45.3379 34.5878 45.4068 34.7623 45.4876C34.9368 45.5699 35.0827 45.6896 35.2046 45.8512C35.4514 46.1834 35.5236 46.6727 35.4183 47.3192C35.3385 47.81 35.1851 48.1781 34.9594 48.425C34.7337 48.6719 34.4087 48.8245 33.9844 48.8814L34.496 50.6037C34.5893 50.9209 34.669 51.1409 34.7352 51.2606C34.8014 51.3803 34.8857 51.4626 34.988 51.509L34.9639 51.6601L33.2472 51.3833L33.2713 51.2322C33.4067 51.2022 33.4819 51.1319 33.5015 51.0197C33.515 50.9404 33.4955 50.8132 33.4443 50.6396L32.9117 48.7751L31.9338 48.6165L31.9323 48.615ZM32.1113 47.5167L33.5842 47.7546C33.8084 47.7905 33.9784 47.7815 34.0973 47.7262C34.2643 47.6528 34.3711 47.4718 34.4177 47.1845C34.4599 46.9286 34.4358 46.7416 34.347 46.6233C34.2583 46.5051 34.0777 46.4243 33.8084 46.3809L32.3355 46.143L32.1113 47.5167Z" fill="#231F20"/>
<path d="M37.5654 46.4259L36.756 51.3774C36.7379 51.4896 36.7409 51.5779 36.765 51.6423C36.7891 51.7081 36.8417 51.7665 36.923 51.8203L36.8989 51.9715L35.4561 51.738L35.4801 51.5869C35.5704 51.5674 35.6381 51.5315 35.6832 51.4747C35.7284 51.4193 35.76 51.3355 35.778 51.2233L36.5875 46.2673C36.6055 46.155 36.6025 46.0683 36.5784 46.0054C36.5544 45.9426 36.5002 45.8842 36.4205 45.8303L36.4445 45.6792L37.8874 45.9126L37.8633 46.0638C37.77 46.0862 37.7008 46.1236 37.6572 46.1775C37.6135 46.2314 37.582 46.3137 37.5639 46.4259H37.5654Z" fill="#231F20"/>
<path d="M41.9625 50.559L42.3597 51.9955L42.2604 52.0733C42.2122 52.003 42.1716 51.9641 42.137 51.9596C42.0964 51.9536 41.9896 52.0045 41.8165 52.1137C41.4359 52.3487 41.1094 52.5013 40.8356 52.5716C40.5618 52.6419 40.2593 52.6509 39.9268 52.5971C39.2603 52.4893 38.7563 52.1661 38.4133 51.6244C38.2192 51.3162 38.0853 50.9451 38.0116 50.5156C37.9333 50.0517 37.9364 49.5609 38.0206 49.0447C38.1365 48.3339 38.3772 47.7293 38.7443 47.2295C39.319 46.4484 40.0547 46.1312 40.9544 46.2764C41.2869 46.3302 41.5743 46.4335 41.815 46.5876C42.0558 46.7417 42.3175 46.9886 42.6004 47.3313C42.7298 47.4899 42.814 47.5707 42.8562 47.5782C42.8908 47.5842 42.9419 47.5602 43.0096 47.5094L43.0773 47.6201L42.2453 48.8456L42.1791 48.7469C42.1882 48.7035 42.1957 48.678 42.2002 48.6676C42.2077 48.6361 42.2122 48.6122 42.2152 48.5987C42.2438 48.4222 42.1129 48.1977 41.821 47.9209C41.5442 47.659 41.2478 47.5019 40.9319 47.451C40.4895 47.3792 40.0969 47.4929 39.7538 47.7922C39.3626 48.1274 39.1174 48.5987 39.0181 49.2078C38.9188 49.8198 39.0001 50.3465 39.2649 50.7879C39.4981 51.177 39.8351 51.4059 40.2744 51.4778C40.6189 51.5331 40.9845 51.4613 41.3682 51.2608C41.6691 51.1022 41.8316 50.9465 41.8557 50.7954C41.8557 50.7879 41.8617 50.7371 41.8692 50.6428L41.964 50.5635L41.9625 50.559Z" fill="#231F20"/>
<path d="M46.159 51.9131L44.2814 51.6093L43.9624 52.2348C43.8857 52.3859 43.8391 52.5057 43.8255 52.5954C43.7969 52.769 43.8571 52.8917 44.0046 52.9635L43.9805 53.1147L42.4805 52.8723L42.5045 52.7211C42.6008 52.7152 42.6761 52.6837 42.7302 52.6299C42.7859 52.576 42.8581 52.4638 42.9484 52.2932L45.1706 48.0539C45.2548 47.8938 45.306 47.7502 45.327 47.6245C45.3511 47.4763 45.3015 47.3506 45.1796 47.2444L45.2037 47.0933L46.7894 47.3491L46.7654 47.5003C46.6179 47.5586 46.5322 47.6694 46.5051 47.8355C46.4855 47.9552 46.4915 48.1048 46.5246 48.2889L47.3597 52.8827C47.4063 53.1326 47.4484 53.2957 47.4845 53.3736C47.5221 53.4514 47.5883 53.5127 47.6831 53.5576L47.6591 53.7087L45.992 53.4394L46.0161 53.2883C46.1801 53.2748 46.2779 53.1775 46.3065 52.998C46.3245 52.8872 46.317 52.7436 46.2824 52.5685L46.1575 51.9116L46.159 51.9131ZM46.0041 51.0168L45.6535 48.9592L44.6981 50.8058L46.0026 51.0168H46.0041Z" fill="#231F20"/>
<path d="M47.5353 54.3521L51.268 54.9551L51.1146 55.8963L47.3818 55.2933L47.5353 54.3521Z" fill="#231F20"/>
<path d="M54.7934 49.7716L54.0743 54.1755C54.0562 54.2877 54.0592 54.376 54.0833 54.4403C54.1074 54.5047 54.16 54.5645 54.2413 54.6184L54.2172 54.7695L52.7743 54.5361L52.7984 54.3849C52.8887 54.367 52.9564 54.3296 53.0015 54.2727C53.0467 54.2174 53.0783 54.1336 53.0963 54.0213L53.817 49.6115L52.6134 49.417C52.5351 49.405 52.4719 49.42 52.4238 49.4664C52.3756 49.5112 52.329 49.5965 52.2839 49.7192L52.1846 49.7028L52.4764 47.9116L52.5757 47.9281C52.5757 48.0583 52.5938 48.1525 52.6254 48.2109C52.657 48.2693 52.7112 48.3052 52.7894 48.3186L56.1746 48.8663C56.2528 48.8783 56.316 48.8633 56.3641 48.8184C56.4123 48.775 56.4589 48.6897 56.5056 48.564L56.6034 48.5805L56.3115 50.3717L56.2137 50.3552C56.2107 50.2235 56.1926 50.1293 56.161 50.0709C56.1294 50.0125 56.0753 49.9781 55.997 49.9647L54.7934 49.7701V49.7716Z" fill="#231F20"/>
<path d="M59.2755 49.2361C59.9255 49.3409 60.4265 49.6746 60.7785 50.2342C61.1998 50.9091 61.3247 51.7755 61.1516 52.8319C60.9892 53.824 60.601 54.5737 59.9856 55.081C59.4771 55.503 58.8994 55.6601 58.2494 55.5553C57.5995 55.4506 57.1015 55.1184 56.7539 54.5587C56.3296 53.8824 56.2017 53.0324 56.3688 52.0089C56.5373 50.9734 56.9299 50.2073 57.5453 49.712C58.0538 49.302 58.6301 49.1434 59.274 49.2361H59.2755ZM59.0919 50.3839C58.6707 50.3165 58.2945 50.4602 57.9651 50.8178C57.6581 51.153 57.458 51.6034 57.3663 52.1705C57.2745 52.7332 57.3211 53.2225 57.5047 53.637C57.7033 54.0844 58.0147 54.3418 58.439 54.4106C58.8603 54.4794 59.2364 54.3328 59.5674 53.9707C59.8743 53.6385 60.0714 53.1985 60.1617 52.6509C60.2595 52.0553 60.2143 51.5555 60.0278 51.1515C59.8247 50.7146 59.5132 50.4587 59.0935 50.3839H59.0919Z" fill="#231F20"/>
<path d="M62.9049 53.6204L62.589 55.5537C62.5709 55.6659 62.5739 55.7527 62.598 55.8185C62.6221 55.8829 62.6747 55.9427 62.756 55.9966L62.7319 56.1477L61.2891 55.9143L61.3131 55.7632C61.4034 55.7452 61.4711 55.7078 61.5162 55.6509C61.5614 55.5956 61.593 55.5118 61.611 55.3995L62.4205 50.4435C62.4385 50.3313 62.4355 50.2445 62.4114 50.1817C62.3874 50.1188 62.3347 50.0605 62.2535 50.0066L62.2775 49.8555L64.939 50.2849C65.4656 50.3702 65.8448 50.5513 66.0735 50.8296C66.2059 50.9912 66.2961 51.2067 66.3428 51.4731C66.3894 51.7394 66.3864 52.0297 66.3353 52.3439C66.2375 52.947 66.0253 53.372 65.7003 53.6218C65.3754 53.8717 64.927 53.9496 64.3568 53.8568L62.9064 53.6218L62.9049 53.6204ZM63.084 52.522L64.4757 52.7465C64.7314 52.7884 64.9135 52.7809 65.0248 52.724C65.1873 52.6432 65.2926 52.4622 65.3377 52.1808C65.3829 51.8995 65.3423 51.6945 65.2129 51.5673C65.1271 51.479 64.9556 51.4147 64.6983 51.3728L63.3066 51.1483L63.0825 52.522H63.084Z" fill="#231F20"/>
<path d="M67.7833 54.3207L67.4538 56.3393C67.4357 56.4515 67.4387 56.5398 67.4628 56.6042C67.4869 56.6685 67.5395 56.7284 67.6208 56.7822L67.5952 56.9334L66.1523 56.6999L66.1764 56.5488C66.2667 56.5309 66.3344 56.4934 66.3795 56.4366C66.4247 56.3812 66.4563 56.2974 66.4743 56.1852L67.2838 51.2292C67.3018 51.117 67.2988 51.0302 67.2747 50.9673C67.2507 50.9045 67.198 50.8461 67.1167 50.7922L67.1408 50.6411L70.7998 51.2322C70.8781 51.2442 70.9413 51.2292 70.9894 51.1843C71.0375 51.1409 71.0842 51.0556 71.1293 50.9299L71.2271 50.9464L70.9352 52.7375L70.8374 52.7211C70.8344 52.5894 70.8164 52.4951 70.7848 52.4368C70.7532 52.3784 70.699 52.344 70.6208 52.3305L68.1714 51.934L67.9533 53.2643L69.4909 53.5127C69.5691 53.5246 69.6308 53.5097 69.679 53.4648C69.7271 53.4199 69.7737 53.3361 69.8219 53.2104L69.9197 53.2269L69.6338 54.9746L69.536 54.9582C69.533 54.8265 69.515 54.7322 69.4834 54.6738C69.4518 54.6155 69.3976 54.5811 69.3194 54.5676L67.7818 54.3192L67.7833 54.3207Z" fill="#231F20"/>
<path d="M72.811 52.1241L72.0016 57.0756C71.9836 57.1879 71.9866 57.2762 72.0106 57.3405C72.0347 57.4049 72.0874 57.4647 72.1686 57.5186L72.143 57.6697L70.7002 57.4363L70.7258 57.2851C70.816 57.2672 70.8837 57.2298 70.9289 57.1729C70.974 57.1175 71.0056 57.0338 71.0237 56.9215L71.8331 51.9655C71.8512 51.8533 71.8482 51.7665 71.8241 51.7037C71.8 51.6408 71.7473 51.5824 71.6661 51.5286L71.6902 51.3774L73.133 51.6109L73.1089 51.762C73.0157 51.7845 72.9465 51.8219 72.9028 51.8757C72.8592 51.9296 72.8276 52.0134 72.8095 52.1241H72.811Z" fill="#231F20"/>
<path d="M75.9271 53.1881L75.208 57.5919C75.1899 57.7042 75.1929 57.7924 75.217 57.8568C75.2411 57.9211 75.2937 57.981 75.375 58.0349L75.3509 58.186L73.9081 57.9526L73.9321 57.8014C74.0224 57.7835 74.0901 57.7461 74.1352 57.6907C74.1804 57.6353 74.212 57.5515 74.23 57.4393L74.9507 53.0295L73.7486 52.8349C73.6703 52.823 73.6071 52.8394 73.559 52.8843C73.5109 52.9292 73.4642 53.0145 73.4191 53.1372L73.3213 53.1208L73.6147 51.3296L73.7125 51.346C73.7125 51.4762 73.7305 51.5705 73.7621 51.6289C73.7937 51.6872 73.8479 51.7231 73.9261 51.7366L77.3113 52.2843C77.3895 52.2963 77.4527 52.2813 77.5009 52.2364C77.549 52.193 77.5956 52.1077 77.6423 51.982L77.7401 51.9985L77.4482 53.7896L77.3504 53.7732C77.3474 53.6415 77.3294 53.5472 77.2978 53.4889C77.2662 53.4305 77.212 53.3961 77.1338 53.3826L75.9301 53.1881H75.9271Z" fill="#231F20"/>
<path d="M24.3998 62.6255L44.592 67.4797L47.076 67.6114L49.2169 65.7769C57.5806 67.7251 66.0662 69.642 66.9087 73.3785L46.1131 69.6959L44.2144 69.0165L23.7137 66.2647C22.817 64.8057 23.0351 63.5907 24.3998 62.6255Z" fill="#231F20"/>
<path d="M56.1501 68.2954C56.1486 68.2788 56.1501 68.2607 56.1501 68.2441C56.1501 68.2592 56.1501 68.2743 56.1531 68.2894C56.1531 68.2909 56.1501 68.2924 56.1501 68.2939V68.2954Z" fill="#231F20" stroke="#231F20" stroke-width="0.181091" stroke-miterlimit="10"/>
<path d="M74.1006 34.1235L72.399 33.8332L63.7178 32.3503C63.6185 32.4042 63.6276 32.491 63.6757 32.5927C63.5854 32.6466 63.5749 32.7169 63.6276 32.8022L72.2214 34.7894L72.2575 34.7969L73.9938 35.1979L73.8223 35.177L73.9983 35.2054C74.0329 35.2682 74.0209 35.3251 73.9637 35.3745L72.2049 35.0827L72.1673 35.0782L63.4034 33.6222C63.3703 33.6656 63.3583 33.715 63.3568 33.7719C63.3553 33.7883 63.3538 33.8048 63.3538 33.8227C63.3071 33.8841 63.2996 33.9574 63.3146 34.0397H63.3207C63.3207 34.0472 63.3207 34.0532 63.3237 34.0592L72.0198 35.8563L72.0559 35.8638L73.7967 36.2229C73.8298 36.2888 73.8192 36.3456 73.7606 36.392L73.5966 36.3576L73.6884 36.3816L72.0048 36.1421L71.9687 36.1376L63.2018 34.8971C63.119 34.957 63.101 35.0258 63.1627 35.1081C63.0769 35.1844 63.0363 35.2623 63.1055 35.3461L71.7866 37.1028L73.419 37.4335C73.4657 37.5083 73.4657 37.5787 73.3814 37.64C72.8248 37.5891 72.2711 37.5338 71.7189 37.4754C71.3052 37.4335 70.8899 37.3886 70.4792 37.3422C70.3874 37.3303 70.2956 37.3198 70.2054 37.3093C69.8563 37.2674 69.5103 37.2255 69.1703 37.1851C69.0559 37.1716 68.9446 37.1582 68.8302 37.1432C68.6813 37.1267 68.5323 37.1073 68.3849 37.0878C68.3383 37.0834 68.2916 37.0759 68.2465 37.0714C66.1311 36.796 64.0503 36.4728 62.0057 36.0942C61.0097 35.9281 60.3612 35.4433 59.9114 34.7729C59.618 34.2073 59.1441 33.8766 58.5558 33.6956C56.5939 32.9923 54.0708 32.4835 51.3386 32.0495C46.5707 31.2789 41.8902 30.9018 37.3044 30.9662C33.9041 30.8105 31.5089 29.8199 29.9728 28.1096C29.8073 27.924 29.6493 27.731 29.5049 27.526C29.717 27.3958 29.9337 27.2746 30.1594 27.1654C32.2642 26.1359 34.8791 26.0775 38.0867 27.1534C42.3039 28.8593 46.7844 30.1895 51.5056 31.1861C54.2092 31.7652 56.7459 32.2007 58.8447 32.253C59.46 32.2934 60.0318 32.1588 60.5313 31.7428C61.2173 31.2834 62.0102 31.0664 63.0002 31.2714C63.781 31.4046 64.6145 31.5587 65.5173 31.7443C65.5218 31.7458 65.5278 31.7458 65.5323 31.7473C67.3859 32.1513 69.7329 32.7409 72.2184 33.3783C72.3027 33.4023 72.3854 33.4247 72.4697 33.4472C73.0083 33.5953 73.568 33.7539 74.1457 33.9215C74.1999 34.0098 74.1713 34.0726 74.0991 34.1265L74.1006 34.1235Z" fill="#231F20"/>
<path d="M56.1182 68.5119C56.1017 68.4311 56.1062 68.3563 56.1498 68.2935C56.1498 68.3069 56.1544 68.3219 56.1574 68.3354C56.1273 68.3952 56.1107 68.4551 56.1213 68.5119H56.1167H56.1182Z" fill="#231F20" stroke="#231F20" stroke-width="0.181091" stroke-miterlimit="10"/>
</svg>
